<svg xmlns="http://www.w3.org/2000/svg" width="192" height="192" viewBox="0 0 192 192">
  <rect width="192" height="192" rx="32" fill="#1e40af"/>
  <rect x="40" y="52" width="112" height="88" rx="8" fill="none" stroke="white" stroke-width="6"/>
  <line x1="40" y1="80" x2="152" y2="80" stroke="white" stroke-width="6"/>
  <line x1="76" y1="140" x2="76" y2="80" stroke="white" stroke-width="6"/>
  <line x1="134" y1="140" x2="134" y2="80" stroke="white" stroke-width="6"/>
  <line x1="96" y1="140" x2="96" y2="80" stroke="white" stroke-width="6"/>
  <line x1="115" y1="140" x2="115" y2="80" stroke="white" stroke-width="6"/>
</svg>
<svg xmlns="http://www.w3.org/2000/svg" width="192" height="192" viewBox="0 0 192 192">
  <rect width="192" height="192" rx="32" fill="#1e40af"/>
  <rect x="40" y="52" width="112" height="88" rx="8" fill="none" stroke="white" stroke-width="6"/>
  <line x1="40" y1="80" x2="152" y2="80" stroke="white" stroke-width="6"/>
  <line x1="76" y1="140" x2="76" y2="80" stroke="white" stroke-width="6"/>
  <line x1="134" y1="140" x2="134" y2="80" stroke="white" stroke-width="6"/>
  <line x1="96" y1="140" x2="96" y2="80" stroke="white" stroke-width="6"/>
  <line x1="115" y1="140" x2="115" y2="80" stroke="white" stroke-width="6"/>
</svg>
